<svg id="Layer_1" data-name="Layer 1" xmlns="http://www.w3.org/2000/svg" viewBox="0 0 556 307"><defs><style>.cls-1{fill:none;stroke:#fe7a22;stroke-miterlimit:10;stroke-width:1.1px;}</style></defs><title>logo</title><path d="M12.67,107.42V43.21h28C65.4,43.21,77.51,54.13,77.51,75c0,20.36-11.83,32.47-36.23,32.47Zm28.7-7.71c16.51,0,24.95-9,24.95-24.49,0-17-9.26-24.3-24.95-24.3h-18V99.71Z"/><path d="M89,107.42V43.21h52.92v8.35H99.7V70.64h37.42v7.89H99.7V99.07h42.19v8.35Z"/><path d="M204.44,107.42l-5.51-12.94H164.26l-5.32,12.94H147.57l27.88-64.21h12.48l27.88,64.21ZM181.6,52.94,167.11,87h29Z"/><path d="M223.6,107.42V43.21h28c24.77,0,36.87,10.92,36.87,31.74,0,20.36-11.83,32.47-36.22,32.47Zm28.71-7.71c16.51,0,24.94-9,24.94-24.49,0-17-9.26-24.3-24.94-24.3h-18V99.71Z"/><path d="M299.9,107.42V43.21h10.73V98.89h40.63v8.53Z"/><path d="M358.69,107.42V99.07h18.53V51.56H358.69V43.21h47.88v8.35H388V99.07h18.62v8.35Z"/><path d="M467.46,107.42,427.2,58.16v49.26H416.84V43.21h11.37l40.17,49.35V43.21h10.46v64.21Z"/><path d="M492.86,107.42V43.21h52.93v8.35H503.6V70.64H541v7.89H503.6V99.07h42.19v8.35Z"/><path d="M63.2,184.14l-5.5-12.93H23l-5.32,12.93H6.34l27.88-64.2H46.69l27.89,64.2ZM40.36,129.66l-14.49,34h29Z"/><path d="M82.37,184.14v-64.2H93.1v55.67h40.63v8.53Z"/><path d="M193.07,184.14,177.2,132.23l-15.78,51.91H150.24l-21.1-64.2h10.91l16.15,51.63h.18l15.5-51.63h10.64L198,171.57h.18l16.15-51.63h10.91l-21.1,64.2Z"/><path d="M279.09,184.14l-5.5-12.93H238.92l-5.32,12.93H222.23l27.88-64.2h12.47l27.89,64.2Zm-22.83-54.48-14.5,34h29Z"/><path d="M309,184.14v-23l-26.51-41.18h12.11l19.81,32.19,19.81-32.19h12.11l-26.51,41.18v23Z"/><path d="M350.81,169.37a8.07,8.07,0,0,1,.09-1.47l8.53-2.2a5.71,5.71,0,0,0-.18,1.38c0,8.34,9.35,10.64,20.45,10.64,11.92,0,19.26-4.31,19.26-11.65,0-5.23-2.93-9-13.11-9.91L369.7,154.7c-11.74-1.1-18.61-6.52-18.61-16.6,0-13,11.64-19.26,29.07-19.26,14.67,0,27.42,5,27.42,16.41a18.65,18.65,0,0,1-.09,2.2l-8.8,2.21a12.67,12.67,0,0,0,.09-1.84c0-7.52-8.44-11.46-18.62-11.46-12.38,0-18.07,4.4-18.07,10.73,0,6,3.76,8.62,12.57,9.35L390,147.82c12.84,1.19,20,6.42,20,17.33,0,15.14-14.4,20.09-30.09,20.09S350.81,181.48,350.81,169.37Z"/><path d="M12.67,260.86v-64.2H65.59V205H23.4v19.08H60.82V232H23.4v20.54H65.59v8.35Z"/><path d="M126.94,260.86l-21.1-26.14L84.66,260.86H71.45l27.52-33L72.74,196.66H86.13l19.9,24,19.44-24h13.21l-25.86,31.09,27.42,33.11Z"/><path d="M143.81,260.86v-8.35h18.53V205H143.81v-8.34h47.88V205H173.07v47.51h18.62v8.35Z"/><path d="M199.48,246.09a8,8,0,0,1,.09-1.46l8.53-2.21a5.71,5.71,0,0,0-.18,1.38c0,8.35,9.35,10.64,20.45,10.64,11.92,0,19.26-4.31,19.26-11.65,0-5.23-2.93-9-13.11-9.9l-16.15-1.47c-11.74-1.1-18.61-6.51-18.61-16.6,0-13,11.64-19.26,29.07-19.26,14.67,0,27.42,5,27.42,16.41a18.9,18.9,0,0,1-.09,2.21l-8.8,2.2a12.67,12.67,0,0,0,.09-1.84c0-7.52-8.44-11.46-18.62-11.46-12.38,0-18.07,4.4-18.07,10.73,0,6,3.76,8.62,12.57,9.35l15.31,1.38c12.84,1.19,20,6.42,20,17.33,0,15.14-14.4,20.09-30.09,20.09S199.48,258.2,199.48,246.09Z"/><path d="M286.24,260.86V205.19H261.66v-8.53h60v8.53H297.06v55.67Z"/><path class="cls-1" d="M22.25,296.85V283.24H32.52V26.05H22.25V12.45H53.69c27.44,0,43.09,75.84,43.09,141.79S81.25,296.85,53.69,296.85Zm23.67-13.61h5.14c15.66,0,30.82-27.2,30.82-129S66.47,26.05,51.06,26.05H45.92Z"/><path class="cls-1" d="M106.93,283.24H117.2V26.05H106.93V12.45h59.76v90.68h-4.14V85.82c0-47.4-5.88-59.77-19.41-59.77H130.61V145.58h18.16V113.84h4.64v80.38h-4.64V158.77H130.61V283.24H147.9c14.4,0,16.91-22.25,16.91-63.88V204.52h4.13v92.33h-62Z"/><path class="cls-1" d="M173.2,283.24h8L209.91,8.33h4.51l28.43,274.91h8.65v13.61H213.79V283.24H228.7l-8-77.48H194.12l-8,77.48h14.54v13.61H173.2Zm34.2-206.9L195.5,192.16h23.8Z"/><path class="cls-1" d="M260.14,283.24h13V26.05h-4.76c-13.16,0-17.54,12.78-17.54,59.77v17.31h-4V12.45h66v90.68h-4V85.82c0-47.4-4.38-59.77-17.54-59.77h-4.76V283.24h13v13.61H260.14Z"/><path class="cls-1" d="M320.52,283.24h10.27V26.05H320.52V12.45h33.7v13.6h-10V145.17h32.94V26.05h-10V12.45h33.7v13.6H390.55V283.24h10.27v13.61h-33.7V283.24h10V158.36H344.2V283.24h10v13.61h-33.7Z"/></svg>