<svg id="Layer_1" data-name="Layer 1" xmlns="http://www.w3.org/2000/svg" viewBox="0 0 117 93"><defs><style>.cls-1{fill:#f27a22;}</style></defs><title>icon</title><path class="cls-1" d="M52,7,12,47,52,87S62,75,62,47,52,7,52,7Z"/><path class="cls-1" d="M62,7a16.74,16.74,0,0,1,4.75,3.09,23,23,0,0,1,2.06,2c.64.71,1.24,1.46,1.86,2.2a39.63,39.63,0,0,1,5.42,10.17A64.63,64.63,0,0,1,79.78,47a64.63,64.63,0,0,1-3.69,22.53A39.63,39.63,0,0,1,70.67,79.7c-.62.74-1.22,1.49-1.86,2.2a23,23,0,0,1-2.06,2A16.74,16.74,0,0,1,62,87a22,22,0,0,0,3.61-4.12c.54-.72,1-1.51,1.48-2.26s.85-1.58,1.27-2.36a48.7,48.7,0,0,0,3.56-10A88.07,88.07,0,0,0,74.22,47a88.07,88.07,0,0,0-2.3-21.23,48.7,48.7,0,0,0-3.56-10c-.42-.78-.82-1.58-1.27-2.36s-.94-1.54-1.48-2.26A22,22,0,0,0,62,7Z"/><path class="cls-1" d="M76,7a16.74,16.74,0,0,1,4.75,3.09,23,23,0,0,1,2.06,2c.64.71,1.24,1.46,1.86,2.2a39.63,39.63,0,0,1,5.42,10.17A64.63,64.63,0,0,1,93.78,47a64.63,64.63,0,0,1-3.69,22.53A39.63,39.63,0,0,1,84.67,79.7c-.62.74-1.22,1.49-1.86,2.2a23,23,0,0,1-2.06,2A16.74,16.74,0,0,1,76,87a22,22,0,0,0,3.61-4.12c.54-.72,1-1.51,1.48-2.26s.85-1.58,1.27-2.36a48.7,48.7,0,0,0,3.56-10A88.07,88.07,0,0,0,88.22,47a88.07,88.07,0,0,0-2.3-21.23,48.7,48.7,0,0,0-3.56-10c-.42-.78-.82-1.58-1.27-2.36s-.94-1.54-1.48-2.26A22,22,0,0,0,76,7Z"/><path class="cls-1" d="M90,7a16.74,16.74,0,0,1,4.75,3.09,23,23,0,0,1,2.06,2c.64.71,1.24,1.46,1.86,2.2a39.63,39.63,0,0,1,5.42,10.17A64.63,64.63,0,0,1,107.78,47a64.63,64.63,0,0,1-3.69,22.53A39.63,39.63,0,0,1,98.67,79.7c-.62.74-1.22,1.49-1.86,2.2a23,23,0,0,1-2.06,2A16.74,16.74,0,0,1,90,87a22,22,0,0,0,3.61-4.12c.54-.72,1-1.51,1.48-2.26s.85-1.58,1.27-2.36a48.7,48.7,0,0,0,3.56-10A88.07,88.07,0,0,0,102.22,47a88.07,88.07,0,0,0-2.3-21.23,48.7,48.7,0,0,0-3.56-10c-.42-.78-.82-1.58-1.27-2.36s-.94-1.54-1.48-2.26A22,22,0,0,0,90,7Z"/></svg>